<svg width="40" height="40" viewBox="0 0 40 40" fill="none" xmlns="http://www.w3.org/2000/svg">
<path d="M3.3335 9.33331V30C3.3335 31.8333 4.8335 33.3333 6.66683 33.3333H33.3335C34.2176 33.3333 35.0654 32.9821 35.6905 32.357C36.3156 31.7319 36.6668 30.884 36.6668 30V9.33331L35.1668 10.5L22.0002 20.5C21.4232 20.9327 20.7214 21.1666 20.0002 21.1666C19.2789 21.1666 18.5772 20.9327 18.0002 20.5L4.66683 10.5L3.3335 9.33331Z" fill="white"/>
<path d="M34.4998 6.83335C34.1239 6.70895 33.7289 6.65251 33.3332 6.66669H6.6665C6.32662 6.67093 5.98939 6.72714 5.6665 6.83335L6.83317 7.83335L19.9998 17.8334L33.1665 7.83335L34.4998 6.83335Z" fill="white"/>
</svg>
