<svg width="31" height="31" viewBox="0 0 31 31" fill="none" xmlns="http://www.w3.org/2000/svg">
<path d="M17.0498 12.6583C16.2266 11.838 15.1119 11.3774 13.9498 11.3774C12.7877 11.3774 11.6729 11.838 10.8498 12.6583L6.45812 17.05C5.7141 17.8872 5.31807 18.977 5.35102 20.0966C5.38398 21.2161 5.84344 22.2807 6.63541 23.0727C7.42739 23.8647 8.49203 24.3241 9.61157 24.3571C10.7311 24.3901 11.8209 23.994 12.6581 23.25L13.0456 22.8625M12.6581 17.05C13.4813 17.8703 14.596 18.3309 15.7581 18.3309C16.9202 18.3309 18.035 17.8703 18.8581 17.05L23.2498 12.6583C23.9938 11.8211 24.3898 10.7313 24.3569 9.61178C24.3239 8.49224 23.8645 7.4276 23.0725 6.63563C22.2805 5.84365 21.2159 5.38419 20.0963 5.35124C18.9768 5.31828 17.887 5.71432 17.0498 6.45833L15.7581 7.75" stroke="white" stroke-width="2" stroke-linecap="round" stroke-linejoin="round"/>
</svg>
