<?xml version="1.0" encoding="UTF-8" standalone="no"?>
<!-- Created with Inkscape (http://www.inkscape.org/) -->

<svg
   width="157.42999mm"
   height="29.21689mm"
   viewBox="0 0 157.42999 29.21689"
   version="1.1"
   id="svg2264"
   inkscape:version="1.1.2 (b8e25be833, 2022-02-05)"
   sodipodi:docname="StowcodeSolutions.svg"
   xmlns:inkscape="http://www.inkscape.org/namespaces/inkscape"
   xmlns:sodipodi="http://sodipodi.sourceforge.net/DTD/sodipodi-0.dtd"
   xmlns="http://www.w3.org/2000/svg"
   xmlns:svg="http://www.w3.org/2000/svg">
  <sodipodi:namedview
     id="namedview2266"
     pagecolor="#ffffff"
     bordercolor="#666666"
     borderopacity="1.0"
     inkscape:pageshadow="2"
     inkscape:pageopacity="0"
     inkscape:pagecheckerboard="true"
     inkscape:document-units="mm"
     showgrid="false"
     inkscape:zoom="1"
     inkscape:cx="397"
     inkscape:cy="141.5"
     inkscape:window-width="1803"
     inkscape:window-height="1146"
     inkscape:window-x="702"
     inkscape:window-y="72"
     inkscape:window-maximized="0"
     inkscape:current-layer="g5416"
     showguides="true"
     inkscape:guide-bbox="true"
     inkscape:snap-nodes="true"
     fit-margin-top="0"
     fit-margin-left="0"
     fit-margin-right="0"
     fit-margin-bottom="0" />
  <defs
     id="defs2261">
    <inkscape:path-effect
       effect="spiro"
       id="path-effect23824"
       is_visible="true"
       lpeversion="1" />
  </defs>
  <g
     inkscape:label="Layer 1"
     inkscape:groupmode="layer"
     id="layer1"
     transform="translate(-24.258288,-183.05209)">
    <g
       id="g43595"
       transform="translate(-0.1674171,65.208614)">
      <g
         id="g5416"
         inkscape:export-filename="C:\Users\mitch\OneDrive\Desktop\stowcode-solutions-logo.png"
         inkscape:export-xdpi="96"
         inkscape:export-ydpi="96">
        <path
           style="color:#000000;fill:#ffffff;-inkscape-stroke:none"
           d="m 66.001953,117.86523 c -2.414423,0 -4.404297,1.99183 -4.404297,4.40625 v 9.45118 c 0,2.41442 1.989874,4.40625 4.404297,4.40625 h 8.648438 c 2.414422,0 4.40625,-1.99183 4.40625,-4.40625 v -9.45118 c 0,-2.41442 -1.991828,-4.40625 -4.40625,-4.40625 z m 0,3 h 8.648438 c 0.804318,0 1.40625,0.60194 1.40625,1.40625 v 9.45118 c 0,0.80431 -0.601932,1.40625 -1.40625,1.40625 h -8.648438 c -0.804318,0 -1.404297,-0.60194 -1.404297,-1.40625 v -9.45118 c 0,-0.80431 0.599979,-1.40625 1.404297,-1.40625 z"
           id="path1296" />
        <path
           id="rect24331"
           style="fill:#ffffff;stroke-width:0.999995"
           d="m 70.239576,125.01311 h 0.243697 c 0.696379,0 1.257001,0.56062 1.257001,1.257 v 1.45569 c 0,0.69638 -0.560622,1.257 -1.257001,1.257 h -0.243697 c -0.696379,0 -1.257002,-0.56062 -1.257002,-1.257 v -1.45569 c 0,-0.69638 0.560623,-1.257 1.257002,-1.257 z" />
        <path
           style="color:#000000;fill:#ffffff;-inkscape-stroke:none"
           d="m 130.66797,117.9082 c -2.40342,0 -4.38477,1.98135 -4.38477,4.38477 v 9.38672 c 0,2.40342 1.98135,4.38672 4.38477,4.38672 h 8.68945 c 2.40342,0 4.38477,-1.9833 4.38477,-4.38672 v -9.38672 c 0,-2.40342 -1.98135,-4.38477 -4.38477,-4.38477 z m 0,3 h 8.68945 c 0.7933,0 1.38477,0.59147 1.38477,1.38477 v 9.38672 c 0,0.79332 -0.59147,1.38672 -1.38477,1.38672 h -8.68945 c -0.7933,0 -1.38477,-0.59341 -1.38477,-1.38672 v -9.38672 c 0,-0.7933 0.59147,-1.38477 1.38477,-1.38477 z"
           id="path1293" />
        <path
           style="color:#000000;fill:#ffffff;stroke-linecap:round;-inkscape-stroke:none"
           d="m 111.85156,117.875 c -2.43106,0 -4.48242,1.95616 -4.48242,4.38672 v 9.38672 c 0,2.43056 2.05137,4.38476 4.48242,4.38476 h 11.13477 a 1.5,1.5 0 0 0 1.5,-1.5 1.5,1.5 0 0 0 -1.5,-1.5 h -11.13477 c -0.87348,0 -1.48242,-0.61859 -1.48242,-1.38476 v -9.38672 c 0,-0.76616 0.60895,-1.38672 1.48242,-1.38672 h 6.36524 1.10937 3.66016 a 1.5,1.5 0 0 0 1.5,-1.5 1.5,1.5 0 0 0 -1.5,-1.5 h -3.66016 -1.10937 z"
           id="path1287" />
        <path
           style="color:#000000;fill:#ffffff;stroke-linecap:round;stroke-linejoin:round;-inkscape-stroke:none"
           d="m 146.94336,117.84375 a 1.5,1.5 0 0 0 -1.5,1.5 1.5,1.5 0 0 0 1.5,1.5 h 3.66016 1.10937 4.99609 c 1.96804,0 2.85157,1.61926 2.85157,2.44141 v 6.40039 c 0,0.45896 -0.20953,1.47012 -0.66602,2.16406 -0.45649,0.69394 -0.97594,1.14258 -2.13086,1.14258 h -9.82031 a 1.5,1.5 0 0 0 -1.5,1.5 1.5,1.5 0 0 0 1.5,1.5 h 9.82031 c 2.14034,0 3.76862,-1.17449 4.63672,-2.49414 0.8681,-1.31966 1.16016,-2.7115 1.16016,-3.8125 v -6.40039 c 0,-2.64932 -2.28791,-5.44141 -5.85157,-5.44141 h -4.99609 -1.10937 z"
           id="path1290" />
        <path
           id="rect24331-7"
           style="fill:#ffffff;stroke-width:0.999995"
           d="m 134.92578,124.95055 h 0.2437 c 0.69637,0 1.257,0.56062 1.257,1.257 v 1.45569 c 0,0.69638 -0.56063,1.257 -1.257,1.257 h -0.2437 c -0.69638,0 -1.257,-0.56062 -1.257,-1.257 v -1.45569 c 0,-0.69638 0.56062,-1.257 1.257,-1.257 z" />
        <path
           id="rect24997"
           style="fill:#ffffff"
           d="m 166.23621,117.86619 h 14.12222 c 0.82949,0 1.49726,0.66778 1.49726,1.49726 0,0.82948 -0.66777,1.49726 -1.49726,1.49726 h -14.12222 c -0.82948,0 -1.49726,-0.66778 -1.49726,-1.49726 0,-0.82948 0.66778,-1.49726 1.49726,-1.49726 z" />
        <path
           id="rect24997-9"
           style="fill:#ffffff"
           d="m 166.23621,125.45558 h 14.12222 c 0.82949,0 1.49726,0.66778 1.49726,1.49726 0,0.82948 -0.66777,1.49726 -1.49726,1.49726 h -14.12222 c -0.82948,0 -1.49726,-0.66778 -1.49726,-1.49726 0,-0.82948 0.66778,-1.49726 1.49726,-1.49726 z" />
        <path
           id="rect24997-9-8"
           style="fill:#ffffff"
           d="m 166.23621,133.04495 h 14.12222 c 0.82949,0 1.49726,0.66778 1.49726,1.49726 0,0.82948 -0.66777,1.49726 -1.49726,1.49726 h -14.12222 c -0.82948,0 -1.49726,-0.66778 -1.49726,-1.49726 0,-0.82948 0.66778,-1.49726 1.49726,-1.49726 z" />
        <path
           style="fill:#ffffff;fill-opacity:1;stroke:none;stroke-width:0.264583px;stroke-linecap:butt;stroke-linejoin:miter;stroke-opacity:1"
           d="m 81.200246,119.80967 c 0,0 -0.391948,-1.31998 0.588276,-1.74118 0.980224,-0.42121 1.602378,0.4761 1.602378,0.4761 l 6.170343,12.97616 2.531781,-5.19797 c 0,0 0.236281,-0.72018 1.073639,-0.73348 0.837359,-0.0133 1.126634,0.82074 1.126634,0.82074 l 2.314549,5.03841 6.172174,-13.05371 c 0,0 0.58856,-0.85051 1.65073,-0.39112 1.06217,0.45941 0.82999,1.54463 0.82999,1.54463 l -7.521054,15.98461 c 0,0 -0.279493,0.50874 -0.995115,0.4871 -0.715622,-0.0217 -0.903453,-0.45096 -0.903453,-0.45096 l -2.555764,-5.24107 c 0,0 -0.02454,-0.0748 -0.167891,-0.075 -0.143348,-3.5e-4 -0.160706,0.075 -0.160706,0.075 l -2.409719,5.20492 c 0,0 -0.193814,0.53453 -0.998384,0.5147 -0.804571,-0.0198 -0.973206,-0.47856 -0.973206,-0.47856 z"
           id="path32641"
           sodipodi:nodetypes="czccczccczcczcczcczcc" />
        <path
           style="fill:#ffffff;fill-opacity:1;stroke:none;stroke-width:0.265;stroke-linecap:butt;stroke-linejoin:miter;stroke-miterlimit:4;stroke-dasharray:none;stroke-opacity:1"
           d="m 49.960803,134.99639 c 0,0 0.104619,1.11235 1.411322,1.1115 1.306705,-8.5e-4 1.27873,-1.10884 1.27873,-1.10884 l 0.01817,-14.4218 6.135884,0.009 c 0,0 0.997173,-0.12424 0.995608,-1.36507 -0.0016,-1.24082 -1.068329,-1.35499 -1.068329,-1.35499 l -29.750657,0.0229 c 0,0 -4.534413,0.51953 -4.555747,5.37153 -0.02133,4.852 4.26524,5.04737 4.26524,5.04737 l 6.2187,-0.0129 c 0,0 3.696016,-0.30223 3.696016,2.5233 0,2.82553 -3.092184,2.58563 -3.092184,2.58563 l -9.934876,0.0365 c 0,0 -1.129817,0.0393 -1.145728,1.32473 -0.01591,1.28539 1.100923,1.33873 1.100923,1.33873 l 11.400021,-0.0645 c 0,0 4.2171,-0.43116 4.2171,-5.11152 0,-4.68036 -4.364372,-5.22549 -4.364372,-5.22549 l -6.926887,-0.0214 c 0,0 -2.716869,0.21676 -2.717166,-2.52773 -2.98e-4,-2.7445 2.683011,-2.61588 2.683011,-2.61588 l 20.070935,0.0305 z"
           id="path41490"
           sodipodi:nodetypes="czccczcczcczcczccccczccc" />
      </g>
      <g
         aria-label="SOLUTIONS"
         transform="scale(0.95890001,1.0428616)"
         id="text1348-1"
         style="font-size:7.44213px;line-height:1.25;letter-spacing:10.4775px;word-spacing:0px;fill:#ff8747;stroke-width:0.264583">
        <path
           d="m 44.593974,139.52776 q 0,0.40932 -0.200938,0.75166 -0.200937,0.33489 -0.535833,0.53583 -0.334896,0.20094 -0.751655,0.20094 h -4.524815 v -0.74421 h 4.524815 q 0.312569,0 0.528391,-0.21583 0.215822,-0.22326 0.215822,-0.52839 0,-0.30512 -0.215822,-0.52095 -0.215822,-0.22326 -0.528391,-0.22326 h -3.036389 q -0.409317,0 -0.751655,-0.20094 -0.334896,-0.20093 -0.535834,-0.53583 -0.200937,-0.34234 -0.200937,-0.75166 0,-0.40931 0.200937,-0.74421 0.200938,-0.34234 0.535834,-0.54327 0.342338,-0.20094 0.751655,-0.20094 h 4.152708 v 0.74421 h -4.152708 q -0.305128,0 -0.528392,0.22327 -0.215821,0.21582 -0.215821,0.52094 0,0.30513 0.215821,0.5284 0.223264,0.21582 0.528392,0.21582 h 3.036389 q 0.416759,0 0.751655,0.20094 0.334896,0.20093 0.535833,0.54327 0.200938,0.3349 0.200938,0.74421 z"
           style="font-family:'Bruno Ace';-inkscape-font-specification:'Bruno Ace'"
           id="path1934" />
        <path
           d="m 62.163818,138.41144 q 0,0.54328 -0.171169,1.01958 -0.171169,0.46885 -0.49118,0.82607 -0.31257,0.35722 -0.751655,0.55816 -0.439086,0.20094 -0.97492,0.20094 h -1.734016 q -0.543275,0 -0.982361,-0.20094 -0.439086,-0.20094 -0.759097,-0.55816 -0.31257,-0.35722 -0.483739,-0.82607 -0.171169,-0.4763 -0.171169,-1.01958 0,-0.53583 0.171169,-1.00468 0.171169,-0.4763 0.483739,-0.83352 0.320011,-0.36467 0.759097,-0.5656 0.439086,-0.20094 0.982361,-0.20094 h 1.734016 q 0.535834,0 0.97492,0.20094 0.439085,0.20093 0.751655,0.5656 0.320011,0.35722 0.49118,0.83352 0.171169,0.46885 0.171169,1.00468 z m -0.744213,0 q 0,-0.5135 -0.200937,-0.9377 -0.193496,-0.42421 -0.565602,-0.6698 -0.364665,-0.25303 -0.878172,-0.25303 h -1.734016 q -0.513507,0 -0.885613,0.25303 -0.364665,0.24559 -0.565602,0.6698 -0.200938,0.4242 -0.200938,0.9377 0,0.51351 0.200938,0.93771 0.200937,0.41676 0.565602,0.66979 0.372106,0.25304 0.885613,0.25304 h 1.734016 q 0.513507,0 0.878172,-0.25304 0.372106,-0.25303 0.565602,-0.66979 0.200937,-0.4242 0.200937,-0.93771 z"
           style="font-family:'Bruno Ace';-inkscape-font-specification:'Bruno Ace'"
           id="path1936" />
        <path
           d="m 78.572701,141.01619 h -4.978785 v -5.20949 h 0.744213 v 4.46528 h 4.234572 z"
           style="font-family:'Bruno Ace';-inkscape-font-specification:'Bruno Ace'"
           id="path1938" />
        <path
           d="m 94.989028,135.8067 -0.0074,2.60474 q 0,0.54328 -0.200938,1.01958 -0.200937,0.46885 -0.558159,0.82607 -0.357223,0.35722 -0.833519,0.55816 -0.468854,0.20094 -1.004688,0.20094 h -0.550717 q -0.535834,0 -1.01213,-0.20094 -0.468854,-0.20094 -0.826076,-0.55816 -0.357223,-0.36466 -0.55816,-0.83352 -0.200938,-0.47629 -0.200938,-1.01213 v -2.60474 h 0.744213 v 2.60474 q 0,0.51351 0.245591,0.93771 0.253032,0.41676 0.677233,0.66979 0.424202,0.25304 0.930267,0.25304 h 0.550717 q 0.513507,0 0.930267,-0.25304 0.424201,-0.25303 0.669791,-0.66979 0.253033,-0.4242 0.253033,-0.93771 v -2.60474 z"
           style="font-family:'Bruno Ace';-inkscape-font-specification:'Bruno Ace'"
           id="path1940" />
        <path
           d="m 109.3662,141.01619 h -0.74421 v -4.46528 h -2.63452 v -0.74421 h 6.01324 v 0.74421 h -2.63451 z"
           style="font-family:'Bruno Ace';-inkscape-font-specification:'Bruno Ace'"
           id="path1942" />
        <path
           d="m 123.92198,141.01619 h -0.74422 v -5.20949 h 0.74422 z"
           style="font-family:'Bruno Ace';-inkscape-font-specification:'Bruno Ace'"
           id="path1944" />
        <path
           d="m 141.87138,138.41144 q 0,0.54328 -0.17117,1.01958 -0.17117,0.46885 -0.49118,0.82607 -0.31257,0.35722 -0.75166,0.55816 -0.43908,0.20094 -0.97492,0.20094 h -1.73401 q -0.54328,0 -0.98237,-0.20094 -0.43908,-0.20094 -0.75909,-0.55816 -0.31257,-0.35722 -0.48374,-0.82607 -0.17117,-0.4763 -0.17117,-1.01958 0,-0.53583 0.17117,-1.00468 0.17117,-0.4763 0.48374,-0.83352 0.32001,-0.36467 0.75909,-0.5656 0.43909,-0.20094 0.98237,-0.20094 h 1.73401 q 0.53584,0 0.97492,0.20094 0.43909,0.20093 0.75166,0.5656 0.32001,0.35722 0.49118,0.83352 0.17117,0.46885 0.17117,1.00468 z m -0.74422,0 q 0,-0.5135 -0.20093,-0.9377 -0.1935,-0.42421 -0.56561,-0.6698 -0.36466,-0.25303 -0.87817,-0.25303 h -1.73401 q -0.51351,0 -0.88562,0.25303 -0.36466,0.24559 -0.5656,0.6698 -0.20094,0.4242 -0.20094,0.9377 0,0.51351 0.20094,0.93771 0.20094,0.41676 0.5656,0.66979 0.37211,0.25304 0.88562,0.25304 h 1.73401 q 0.51351,0 0.87817,-0.25304 0.37211,-0.25303 0.56561,-0.66979 0.20093,-0.4242 0.20093,-0.93771 z"
           style="font-family:'Bruno Ace';-inkscape-font-specification:'Bruno Ace'"
           id="path1946" />
        <path
           d="m 154.04569,141.01619 h -0.74422 v -5.20949 h 0.37211 q 0.54328,0 1.17586,0.20838 0.64002,0.20838 1.28004,0.58793 0.64003,0.37955 1.20563,0.90794 0.57304,0.52095 0.98236,1.16097 v -2.86522 h 0.74421 v 5.20949 h -0.74421 q 0,-0.68468 -0.2828,-1.30982 -0.27536,-0.63258 -0.73677,-1.16097 -0.46141,-0.53583 -1.02702,-0.94515 -0.55816,-0.41676 -1.13864,-0.67723 -0.58049,-0.26792 -1.08655,-0.34234 z"
           style="font-family:'Bruno Ace';-inkscape-font-specification:'Bruno Ace'"
           id="path1948" />
        <path
           d="m 176.54222,139.52776 q 0,0.40932 -0.20094,0.75166 -0.20094,0.33489 -0.53583,0.53583 -0.3349,0.20094 -0.75166,0.20094 h -4.52482 v -0.74421 h 4.52482 q 0.31257,0 0.52839,-0.21583 0.21582,-0.22326 0.21582,-0.52839 0,-0.30512 -0.21582,-0.52095 -0.21582,-0.22326 -0.52839,-0.22326 h -3.03639 q -0.40932,0 -0.75165,-0.20094 -0.3349,-0.20093 -0.53584,-0.53583 -0.20094,-0.34234 -0.20094,-0.75166 0,-0.40931 0.20094,-0.74421 0.20094,-0.34234 0.53584,-0.54327 0.34233,-0.20094 0.75165,-0.20094 h 4.15271 v 0.74421 h -4.15271 q -0.30513,0 -0.52839,0.22327 -0.21582,0.21582 -0.21582,0.52094 0,0.30513 0.21582,0.5284 0.22326,0.21582 0.52839,0.21582 h 3.03639 q 0.41676,0 0.75166,0.20094 0.33489,0.20093 0.53583,0.54327 0.20094,0.3349 0.20094,0.74421 z"
           style="font-family:'Bruno Ace';-inkscape-font-specification:'Bruno Ace'"
           id="path1950" />
      </g>
    </g>
  </g>
</svg>
